<svg width="107" height="32" viewBox="0 0 107 32" fill="none" xmlns="http://www.w3.org/2000/svg">
<rect x="0.5" y="0.5" width="106" height="31" rx="5.5" fill="black"/>
<g clip-path="url(#clip0_1104_53217)">
<path d="M20.1138 12.1805C19.4044 12.1805 18.3067 11.3738 17.1507 11.4023C15.6242 11.4225 14.225 12.2875 13.4386 13.6575C11.8546 16.4073 13.0301 20.4688 14.5752 22.7039C15.3332 23.7918 16.2273 25.016 17.4126 24.9778C18.5499 24.9292 18.9764 24.2393 20.3569 24.2393C21.727 24.2393 22.1153 24.9778 23.32 24.9486C24.5449 24.9292 25.3223 23.8412 26.0706 22.7428C26.9356 21.4797 27.2947 20.2548 27.3142 20.1875C27.285 20.1778 24.9332 19.2739 24.9048 16.5532C24.8854 14.2785 26.7605 13.1906 26.848 13.142C25.7788 11.5781 24.1371 11.403 23.5632 11.3641C22.0667 11.2474 20.8134 12.1805 20.1138 12.1805ZM22.6414 9.88631C23.2721 9.12908 23.6889 8.0703 23.5729 7.02051C22.6698 7.05942 21.5811 7.62285 20.9301 8.38083C20.3465 9.05126 19.8421 10.1302 19.9776 11.1598C20.9787 11.2377 22.0091 10.645 22.6406 9.88706" fill="#FCFCFC"/>
</g>
<path d="M37.7468 8.40808H39.666C40.1644 8.40808 40.6043 8.5091 40.986 8.71113C41.3676 8.90866 41.6639 9.18701 41.8749 9.54618C42.0859 9.90085 42.1914 10.3071 42.1914 10.7651C42.1914 11.223 42.0859 11.6316 41.8749 11.9907C41.6639 12.3454 41.3676 12.6237 40.986 12.8258C40.6043 13.0233 40.1644 13.1221 39.666 13.1221H37.7468V8.40808ZM39.6391 12.6911C40.0521 12.6911 40.4135 12.6103 40.7233 12.4486C41.0331 12.2825 41.2733 12.0558 41.4439 11.7685C41.6145 11.4767 41.6998 11.1422 41.6998 10.7651C41.6998 10.388 41.6145 10.0557 41.4439 9.76841C41.2733 9.47659 41.0331 9.24987 40.7233 9.08824C40.4135 8.92213 40.0521 8.83908 39.6391 8.83908H38.2451V12.6911H39.6391ZM44.6573 13.1557C44.3161 13.1557 44.0086 13.0794 43.7347 12.9268C43.4608 12.7696 43.2453 12.5541 43.0882 12.2803C42.9311 12.0064 42.8525 11.6967 42.8525 11.351C42.8525 11.0053 42.9311 10.6955 43.0882 10.4216C43.2453 10.1478 43.4608 9.93452 43.7347 9.78187C44.0086 9.62923 44.3161 9.55291 44.6573 9.55291C44.9985 9.55291 45.306 9.62923 45.5799 9.78187C45.8537 9.93452 46.067 10.1478 46.2196 10.4216C46.3768 10.6955 46.4553 11.0053 46.4553 11.351C46.4553 11.6967 46.3768 12.0064 46.2196 12.2803C46.067 12.5541 45.8537 12.7696 45.5799 12.9268C45.306 13.0794 44.9985 13.1557 44.6573 13.1557ZM44.6573 12.7315C44.9087 12.7315 45.1332 12.6754 45.3307 12.5631C45.5327 12.4464 45.6899 12.2825 45.8021 12.0715C45.9143 11.8605 45.9705 11.6203 45.9705 11.351C45.9705 11.0816 45.9143 10.8414 45.8021 10.6304C45.6899 10.4194 45.5327 10.2578 45.3307 10.1455C45.1332 10.0288 44.9087 9.97043 44.6573 9.97043C44.4059 9.97043 44.1792 10.0288 43.9771 10.1455C43.7796 10.2578 43.6225 10.4194 43.5057 10.6304C43.3935 10.8414 43.3374 11.0816 43.3374 11.351C43.3374 11.6203 43.3935 11.8605 43.5057 12.0715C43.6225 12.2825 43.7796 12.4464 43.9771 12.5631C44.1792 12.6754 44.4059 12.7315 44.6573 12.7315ZM52.5317 9.57985L51.1916 13.1221H50.7404L49.6225 10.2196L48.5046 13.1221H48.0534L46.72 9.57985H47.178L48.2891 12.5901L49.4272 9.57985H49.838L50.9693 12.5901L52.094 9.57985H52.5317ZM55.0564 9.55291C55.5009 9.55291 55.8533 9.68311 56.1137 9.9435C56.3786 10.1994 56.511 10.5743 56.511 11.0681V13.1221H56.0329V11.1153C56.0329 10.7471 55.9408 10.4665 55.7568 10.2735C55.5727 10.0804 55.3101 9.9839 54.9689 9.9839C54.5873 9.9839 54.2842 10.0984 54.0597 10.3273C53.8398 10.5518 53.7298 10.8638 53.7298 11.2634V13.1221H53.2516V9.57985H53.7096V10.2331C53.8398 10.0176 54.0193 9.85146 54.2483 9.73473C54.4818 9.61352 54.7511 9.55291 55.0564 9.55291ZM57.8091 8.12524H58.2872V13.1221H57.8091V8.12524ZM61.0655 13.1557C60.7243 13.1557 60.4167 13.0794 60.1429 12.9268C59.869 12.7696 59.6535 12.5541 59.4964 12.2803C59.3393 12.0064 59.2607 11.6967 59.2607 11.351C59.2607 11.0053 59.3393 10.6955 59.4964 10.4216C59.6535 10.1478 59.869 9.93452 60.1429 9.78187C60.4167 9.62923 60.7243 9.55291 61.0655 9.55291C61.4067 9.55291 61.7142 9.62923 61.9881 9.78187C62.2619 9.93452 62.4752 10.1478 62.6278 10.4216C62.785 10.6955 62.8635 11.0053 62.8635 11.351C62.8635 11.6967 62.785 12.0064 62.6278 12.2803C62.4752 12.5541 62.2619 12.7696 61.9881 12.9268C61.7142 13.0794 61.4067 13.1557 61.0655 13.1557ZM61.0655 12.7315C61.3169 12.7315 61.5414 12.6754 61.7389 12.5631C61.9409 12.4464 62.0981 12.2825 62.2103 12.0715C62.3225 11.8605 62.3787 11.6203 62.3787 11.351C62.3787 11.0816 62.3225 10.8414 62.2103 10.6304C62.0981 10.4194 61.9409 10.2578 61.7389 10.1455C61.5414 10.0288 61.3169 9.97043 61.0655 9.97043C60.8141 9.97043 60.5873 10.0288 60.3853 10.1455C60.1878 10.2578 60.0306 10.4194 59.9139 10.6304C59.8017 10.8414 59.7456 11.0816 59.7456 11.351C59.7456 11.6203 59.8017 11.8605 59.9139 12.0715C60.0306 12.2825 60.1878 12.4464 60.3853 12.5631C60.5873 12.6754 60.8141 12.7315 61.0655 12.7315ZM65.0591 9.55291C65.5215 9.55291 65.8762 9.66964 66.1231 9.90309C66.37 10.1321 66.4935 10.4733 66.4935 10.9267V13.1221H66.0355V12.5699C65.9278 12.7539 65.7684 12.8976 65.5574 13.0009C65.3509 13.1041 65.104 13.1557 64.8166 13.1557C64.4215 13.1557 64.1073 13.0615 63.8738 12.8729C63.6404 12.6843 63.5236 12.4352 63.5236 12.1254C63.5236 11.8246 63.6314 11.5822 63.8469 11.3981C64.0669 11.214 64.4148 11.122 64.8907 11.122H66.0153V10.9065C66.0153 10.6012 65.93 10.37 65.7594 10.2129C65.5888 10.0512 65.3397 9.97043 65.0119 9.97043C64.7874 9.97043 64.5719 10.0086 64.3654 10.0849C64.1589 10.1567 63.9816 10.2578 63.8334 10.388L63.6179 10.031C63.7975 9.8784 64.013 9.76167 64.2644 9.68086C64.5158 9.59556 64.7807 9.55291 65.0591 9.55291ZM64.8907 12.7786C65.1601 12.7786 65.3913 12.718 65.5843 12.5968C65.7774 12.4711 65.921 12.2915 66.0153 12.0581V11.4789H64.9042C64.2981 11.4789 63.995 11.6899 63.995 12.1119C63.995 12.3184 64.0736 12.4823 64.2307 12.6035C64.3879 12.7203 64.6079 12.7786 64.8907 12.7786ZM71.0377 8.12524V13.1221H70.5798V12.4217C70.4361 12.6597 70.2453 12.8415 70.0074 12.9672C69.7739 13.0929 69.509 13.1557 69.2127 13.1557C68.8805 13.1557 68.5797 13.0794 68.3103 12.9268C68.041 12.7741 67.83 12.5609 67.6773 12.287C67.5247 12.0132 67.4484 11.7011 67.4484 11.351C67.4484 11.0008 67.5247 10.6888 67.6773 10.4149C67.83 10.141 68.041 9.93003 68.3103 9.78187C68.5797 9.62923 68.8805 9.55291 69.2127 9.55291C69.5001 9.55291 69.7582 9.61352 69.9872 9.73473C70.2206 9.85146 70.4114 10.0243 70.5596 10.2533V8.12524H71.0377ZM69.2531 12.7315C69.5001 12.7315 69.7223 12.6754 69.9198 12.5631C70.1219 12.4464 70.279 12.2825 70.3912 12.0715C70.508 11.8605 70.5663 11.6203 70.5663 11.351C70.5663 11.0816 70.508 10.8414 70.3912 10.6304C70.279 10.4194 70.1219 10.2578 69.9198 10.1455C69.7223 10.0288 69.5001 9.97043 69.2531 9.97043C69.0017 9.97043 68.775 10.0288 68.573 10.1455C68.3754 10.2578 68.2183 10.4194 68.1016 10.6304C67.9893 10.8414 67.9332 11.0816 67.9332 11.351C67.9332 11.6203 67.9893 11.8605 68.1016 12.0715C68.2183 12.2825 68.3754 12.4464 68.573 12.5631C68.775 12.6754 69.0017 12.7315 69.2531 12.7315ZM75.5797 13.1557C75.2385 13.1557 74.9309 13.0794 74.6571 12.9268C74.3832 12.7696 74.1677 12.5541 74.0106 12.2803C73.8534 12.0064 73.7749 11.6967 73.7749 11.351C73.7749 11.0053 73.8534 10.6955 74.0106 10.4216C74.1677 10.1478 74.3832 9.93452 74.6571 9.78187C74.9309 9.62923 75.2385 9.55291 75.5797 9.55291C75.9209 9.55291 76.2284 9.62923 76.5023 9.78187C76.7761 9.93452 76.9894 10.1478 77.142 10.4216C77.2991 10.6955 77.3777 11.0053 77.3777 11.351C77.3777 11.6967 77.2991 12.0064 77.142 12.2803C76.9894 12.5541 76.7761 12.7696 76.5023 12.9268C76.2284 13.0794 75.9209 13.1557 75.5797 13.1557ZM75.5797 12.7315C75.8311 12.7315 76.0556 12.6754 76.2531 12.5631C76.4551 12.4464 76.6123 12.2825 76.7245 12.0715C76.8367 11.8605 76.8928 11.6203 76.8928 11.351C76.8928 11.0816 76.8367 10.8414 76.7245 10.6304C76.6123 10.4194 76.4551 10.2578 76.2531 10.1455C76.0556 10.0288 75.8311 9.97043 75.5797 9.97043C75.3283 9.97043 75.1015 10.0288 74.8995 10.1455C74.702 10.2578 74.5448 10.4194 74.4281 10.6304C74.3159 10.8414 74.2598 11.0816 74.2598 11.351C74.2598 11.6203 74.3159 11.8605 74.4281 12.0715C74.5448 12.2825 74.702 12.4464 74.8995 12.5631C75.1015 12.6754 75.3283 12.7315 75.5797 12.7315ZM80.1587 9.55291C80.6031 9.55291 80.9555 9.68311 81.2159 9.9435C81.4808 10.1994 81.6133 10.5743 81.6133 11.0681V13.1221H81.1351V11.1153C81.1351 10.7471 81.0431 10.4665 80.859 10.2735C80.6749 10.0804 80.4123 9.9839 80.0711 9.9839C79.6895 9.9839 79.3865 10.0984 79.162 10.3273C78.942 10.5518 78.832 10.8638 78.832 11.2634V13.1221H78.3539V9.57985H78.8118V10.2331C78.942 10.0176 79.1216 9.85146 79.3505 9.73473C79.584 9.61352 79.8534 9.55291 80.1587 9.55291ZM86.5392 12.9066C86.4494 12.9874 86.3372 13.0502 86.2025 13.0951C86.0723 13.1355 85.9354 13.1557 85.7917 13.1557C85.4595 13.1557 85.2036 13.066 85.024 12.8864C84.8444 12.7068 84.7546 12.4531 84.7546 12.1254V9.9839H84.1216V9.57985H84.7546V8.80541H85.2328V9.57985H86.3102V9.9839H85.2328V12.0985C85.2328 12.3095 85.2844 12.4711 85.3877 12.5833C85.4954 12.6911 85.648 12.745 85.8456 12.745C85.9443 12.745 86.0386 12.7292 86.1284 12.6978C86.2227 12.6664 86.3035 12.6215 86.3709 12.5631L86.5392 12.9066ZM89.2144 9.55291C89.6589 9.55291 90.0113 9.68311 90.2717 9.9435C90.5366 10.1994 90.669 10.5743 90.669 11.0681V13.1221H90.1909V11.1153C90.1909 10.7471 90.0988 10.4665 89.9148 10.2735C89.7307 10.0804 89.4681 9.9839 89.1269 9.9839C88.7452 9.9839 88.4422 10.0984 88.2177 10.3273C87.9977 10.5518 87.8877 10.8638 87.8877 11.2634V13.1221H87.4096V8.12524H87.8877V10.1994C88.0179 9.99288 88.1975 9.8335 88.4265 9.72127C88.6555 9.60903 88.9181 9.55291 89.2144 9.55291ZM95.0645 11.4991H92.1015C92.1284 11.8673 92.2698 12.1658 92.5257 12.3948C92.7816 12.6192 93.1049 12.7315 93.4954 12.7315C93.7154 12.7315 93.9175 12.6933 94.1015 12.617C94.2856 12.5362 94.445 12.4195 94.5797 12.2668L94.849 12.5766C94.6919 12.7652 94.4944 12.9088 94.2564 13.0076C94.023 13.1064 93.7648 13.1557 93.482 13.1557C93.1183 13.1557 92.7951 13.0794 92.5122 12.9268C92.2339 12.7696 92.0161 12.5541 91.859 12.2803C91.7019 12.0064 91.6233 11.6967 91.6233 11.351C91.6233 11.0053 91.6974 10.6955 91.8455 10.4216C91.9982 10.1478 92.2047 9.93452 92.4651 9.78187C92.73 9.62923 93.0263 9.55291 93.354 9.55291C93.6818 9.55291 93.9758 9.62923 94.2362 9.78187C94.4966 9.93452 94.7009 10.1478 94.849 10.4216C94.9972 10.691 95.0713 11.0008 95.0713 11.351L95.0645 11.4991ZM93.354 9.9637C93.0128 9.9637 92.7255 10.0737 92.492 10.2937C92.2631 10.5092 92.1329 10.792 92.1015 11.1422H94.6133C94.5819 10.792 94.4495 10.5092 94.216 10.2937C93.987 10.0737 93.6997 9.9637 93.354 9.9637Z" fill="#FCFCFC"/>
<path d="M43.1591 22.877L42.4591 21.257H38.9591L38.2691 22.877H36.9291L40.0791 15.877H41.3591L44.5191 22.877H43.1591ZM39.3991 20.237H42.0291L40.7091 17.177L39.3991 20.237ZM48.2493 17.477C49.8093 17.477 50.9593 18.557 50.9593 20.207C50.9593 21.867 49.8093 22.947 48.2493 22.947C47.5693 22.947 46.9693 22.717 46.5393 22.227V24.817H45.2893V17.537H46.4793V18.237C46.8993 17.727 47.5193 17.477 48.2493 17.477ZM48.1093 21.877C49.0093 21.877 49.6893 21.227 49.6893 20.207C49.6893 19.187 49.0093 18.537 48.1093 18.537C47.2093 18.537 46.5193 19.187 46.5193 20.207C46.5193 21.227 47.2093 21.877 48.1093 21.877ZM55.1048 17.477C56.6648 17.477 57.8148 18.557 57.8148 20.207C57.8148 21.867 56.6648 22.947 55.1048 22.947C54.4248 22.947 53.8248 22.717 53.3948 22.227V24.817H52.1448V17.537H53.3348V18.237C53.7548 17.727 54.3748 17.477 55.1048 17.477ZM54.9648 21.877C55.8648 21.877 56.5448 21.227 56.5448 20.207C56.5448 19.187 55.8648 18.537 54.9648 18.537C54.0648 18.537 53.3748 19.187 53.3748 20.207C53.3748 21.227 54.0648 21.877 54.9648 21.877ZM64.0539 22.977C62.9639 22.977 61.8739 22.637 61.2939 22.137L61.7439 21.127C62.3039 21.577 63.1939 21.897 64.0539 21.897C65.1439 21.897 65.6039 21.507 65.6039 20.987C65.6039 19.477 61.4439 20.467 61.4439 17.867C61.4439 16.737 62.3439 15.777 64.2639 15.777C65.1039 15.777 65.9839 15.997 66.5939 16.397L66.1839 17.407C65.5539 17.037 64.8639 16.857 64.2539 16.857C63.1739 16.857 62.7339 17.277 62.7339 17.807C62.7339 19.297 66.8839 18.327 66.8839 20.897C66.8839 22.017 65.9739 22.977 64.0539 22.977ZM70.913 21.697L71.263 22.587C70.963 22.827 70.513 22.947 70.063 22.947C68.893 22.947 68.223 22.327 68.223 21.147V18.577H67.343V17.577H68.223V16.357H69.473V17.577H70.903V18.577H69.473V21.117C69.473 21.637 69.733 21.917 70.213 21.917C70.473 21.917 70.723 21.847 70.913 21.697ZM74.5155 22.947C72.8755 22.947 71.6755 21.807 71.6755 20.207C71.6755 18.607 72.8755 17.477 74.5155 17.477C76.1755 17.477 77.3655 18.607 77.3655 20.207C77.3655 21.807 76.1755 22.947 74.5155 22.947ZM74.5155 21.877C75.4255 21.877 76.1055 21.227 76.1055 20.207C76.1055 19.187 75.4255 18.537 74.5155 18.537C73.6155 18.537 72.9355 19.187 72.9355 20.207C72.9355 21.227 73.6155 21.877 74.5155 21.877ZM79.7508 18.317C80.1108 17.757 80.7608 17.477 81.6508 17.477V18.667C81.5408 18.647 81.4508 18.637 81.3608 18.637C80.4108 18.637 79.8108 19.197 79.8108 20.287V22.877H78.5608V17.537H79.7508V18.317ZM87.6823 20.237C87.6823 20.337 87.6723 20.487 87.6623 20.607H83.4723C83.6223 21.387 84.2723 21.887 85.2023 21.887C85.8023 21.887 86.2723 21.697 86.6523 21.307L87.3223 22.077C86.8423 22.647 86.0923 22.947 85.1723 22.947C83.3823 22.947 82.2223 21.797 82.2223 20.207C82.2223 18.617 83.3923 17.477 84.9823 17.477C86.5423 17.477 87.6823 18.567 87.6823 20.237ZM84.9823 18.477C84.1723 18.477 83.5823 18.997 83.4623 19.777H86.4923C86.3923 19.007 85.8023 18.477 84.9823 18.477Z" fill="#FCFCFC"/>
<rect x="0.5" y="0.5" width="106" height="31" rx="5.5" stroke="#A6A6A6"/>
<defs>
<clipPath id="clip0_1104_53217">
<rect width="17.958" height="17.958" fill="white" transform="translate(11.021 7.02051)"/>
</clipPath>
</defs>
</svg>
