<svg width="107" height="32" viewBox="0 0 107 32" fill="none" xmlns="http://www.w3.org/2000/svg">
<rect x="0.5" y="0.5" width="106" height="31" rx="5.5" fill="black"/>
<g clip-path="url(#clip0_1104_53224)">
<path d="M17.9329 15.5576L9.97754 23.8924C10.0669 24.209 10.2274 24.501 10.4469 24.7461C10.6664 24.9911 10.939 25.1827 11.2439 25.3063C11.5487 25.4298 11.8778 25.482 12.206 25.4589C12.5341 25.4358 12.8526 25.3379 13.1372 25.1728L22.0885 20.0748L17.9329 15.5576Z" fill="#EA4335"/>
<path d="M25.9771 14.141L22.1063 11.9238L17.7492 15.7473L22.124 20.0629L25.9654 17.8696C26.3057 17.6914 26.5907 17.4234 26.7896 17.0948C26.9885 16.7662 27.0936 16.3894 27.0936 16.0052C27.0936 15.6211 26.9885 15.2443 26.7896 14.9157C26.5907 14.587 26.3057 14.3191 25.9654 14.1409H25.9773L25.9771 14.141Z" fill="#FBBC04"/>
<path d="M9.97753 8.07715C9.92944 8.25492 9.90551 8.43835 9.90636 8.62251V23.3476C9.90686 23.5317 9.93078 23.715 9.97753 23.8931L18.2056 15.7717L9.97753 8.07715Z" fill="#4285F4"/>
<path d="M17.9922 15.9848L22.1063 11.9241L13.1669 6.80233C12.8305 6.60535 12.448 6.50103 12.0582 6.5C11.091 6.49812 10.2406 7.1401 9.97754 8.07096L17.9922 15.9848Z" fill="#34A853"/>
</g>
<path d="M39.1814 10.7651H39.6595V12.5631C39.4395 12.7562 39.1791 12.9043 38.8783 13.0076C38.5775 13.1108 38.261 13.1625 37.9288 13.1625C37.4574 13.1625 37.0331 13.0592 36.656 12.8527C36.2789 12.6462 35.9826 12.3611 35.7671 11.9974C35.5516 11.6293 35.4438 11.2185 35.4438 10.7651C35.4438 10.3116 35.5516 9.90309 35.7671 9.53944C35.9826 9.1713 36.2789 8.88397 36.656 8.67745C37.0331 8.47094 37.4596 8.36768 37.9355 8.36768C38.2947 8.36768 38.6247 8.42604 38.9255 8.54277C39.2263 8.65501 39.4799 8.82336 39.6864 9.04784L39.3767 9.36435C39.004 8.99621 38.5304 8.81214 37.9557 8.81214C37.5741 8.81214 37.2284 8.89744 36.9186 9.06804C36.6134 9.23415 36.3732 9.46761 36.1981 9.76841C36.023 10.0647 35.9354 10.3969 35.9354 10.7651C35.9354 11.1332 36.023 11.4654 36.1981 11.7617C36.3732 12.0581 36.6134 12.2915 36.9186 12.4621C37.2239 12.6327 37.5674 12.718 37.949 12.718C38.4339 12.718 38.8446 12.5968 39.1814 12.3544V10.7651ZM44.4034 12.6911V13.1221H41.0699V8.40808H44.3023V8.83908H41.5682V10.5159H44.006V10.9402H41.5682V12.6911H44.4034ZM46.4906 8.83908H44.834V8.40808H48.6456V8.83908H46.9889V13.1221H46.4906V8.83908ZM51.2042 8.40808H51.7025V13.1221H51.2042V8.40808ZM57.1758 8.40808V13.1221H56.7651L53.7346 9.29701V13.1221H53.2363V8.40808H53.6471L56.6842 12.2331V8.40808H57.1758ZM62.5376 13.1625C62.0707 13.1625 61.6465 13.0592 61.2649 12.8527C60.8877 12.6417 60.5914 12.3544 60.3759 11.9907C60.1649 11.6271 60.0594 11.2185 60.0594 10.7651C60.0594 10.3116 60.1649 9.90309 60.3759 9.53944C60.5914 9.17579 60.8877 8.89071 61.2649 8.68419C61.6465 8.47318 62.0707 8.36768 62.5376 8.36768C63.0045 8.36768 63.4243 8.47094 63.7969 8.67745C64.1741 8.88397 64.4704 9.1713 64.6859 9.53944C64.9014 9.90309 65.0091 10.3116 65.0091 10.7651C65.0091 11.2185 64.9014 11.6293 64.6859 11.9974C64.4704 12.3611 64.1741 12.6462 63.7969 12.8527C63.4243 13.0592 63.0045 13.1625 62.5376 13.1625ZM62.5376 12.718C62.9103 12.718 63.247 12.635 63.5478 12.4688C63.8486 12.2982 64.0843 12.0648 64.2549 11.7685C64.4255 11.4677 64.5108 11.1332 64.5108 10.7651C64.5108 10.3969 64.4255 10.0647 64.2549 9.76841C64.0843 9.46761 63.8486 9.23415 63.5478 9.06804C63.247 8.89744 62.9103 8.81214 62.5376 8.81214C62.165 8.81214 61.826 8.89744 61.5208 9.06804C61.22 9.23415 60.982 9.46761 60.8069 9.76841C60.6363 10.0647 60.551 10.3969 60.551 10.7651C60.551 11.1332 60.6363 11.4677 60.8069 11.7685C60.982 12.0648 61.22 12.2982 61.5208 12.4688C61.826 12.635 62.165 12.718 62.5376 12.718ZM70.0656 8.40808V13.1221H69.6549L66.6244 9.29701V13.1221H66.1261V8.40808H66.5369L69.574 12.2331V8.40808H70.0656Z" fill="#FCFCFC"/>
<path d="M40.8137 21.477V19.297H42.0437V22.087C41.3137 22.677 40.2937 22.977 39.3037 22.977C37.1337 22.977 35.5337 21.467 35.5337 19.377C35.5337 17.287 37.1337 15.777 39.3237 15.777C40.4937 15.777 41.4737 16.167 42.1337 16.917L41.3137 17.717C40.7637 17.167 40.1337 16.917 39.3837 16.917C37.8937 16.917 36.8437 17.927 36.8437 19.377C36.8437 20.797 37.8937 21.837 39.3737 21.837C39.8737 21.837 40.3637 21.737 40.8137 21.477ZM46.0383 22.947C44.3983 22.947 43.1983 21.807 43.1983 20.207C43.1983 18.607 44.3983 17.477 46.0383 17.477C47.6983 17.477 48.8883 18.607 48.8883 20.207C48.8883 21.807 47.6983 22.947 46.0383 22.947ZM46.0383 21.877C46.9483 21.877 47.6283 21.227 47.6283 20.207C47.6283 19.187 46.9483 18.537 46.0383 18.537C45.1383 18.537 44.4583 19.187 44.4583 20.207C44.4583 21.227 45.1383 21.877 46.0383 21.877ZM52.4836 22.947C50.8436 22.947 49.6436 21.807 49.6436 20.207C49.6436 18.607 50.8436 17.477 52.4836 17.477C54.1436 17.477 55.3336 18.607 55.3336 20.207C55.3336 21.807 54.1436 22.947 52.4836 22.947ZM52.4836 21.877C53.3936 21.877 54.0736 21.227 54.0736 20.207C54.0736 19.187 53.3936 18.537 52.4836 18.537C51.5836 18.537 50.9036 19.187 50.9036 20.207C50.9036 21.227 51.5836 21.877 52.4836 21.877ZM60.6389 17.537H61.8289V22.067C61.8289 24.007 60.8189 24.887 58.9489 24.887C57.9489 24.887 56.9589 24.627 56.3489 24.127L56.9089 23.187C57.3789 23.577 58.1389 23.827 58.8789 23.827C60.0589 23.827 60.5789 23.287 60.5789 22.207V21.927C60.1389 22.407 59.5089 22.637 58.7889 22.637C57.2589 22.637 56.0889 21.597 56.0889 20.047C56.0889 18.497 57.2589 17.477 58.7889 17.477C59.5389 17.477 60.1989 17.717 60.6389 18.247V17.537ZM58.9789 21.577C59.9189 21.577 60.5989 20.957 60.5989 20.047C60.5989 19.147 59.9189 18.537 58.9789 18.537C58.0289 18.537 57.3489 19.147 57.3489 20.047C57.3489 20.957 58.0289 21.577 58.9789 21.577ZM63.4723 22.877V15.457H64.7223V22.877H63.4723ZM71.3829 20.237C71.3829 20.337 71.3729 20.487 71.3629 20.607H67.1729C67.3229 21.387 67.9729 21.887 68.9029 21.887C69.5029 21.887 69.9729 21.697 70.3529 21.307L71.0229 22.077C70.5429 22.647 69.7929 22.947 68.8729 22.947C67.0829 22.947 65.9229 21.797 65.9229 20.207C65.9229 18.617 67.0929 17.477 68.6829 17.477C70.2429 17.477 71.3829 18.567 71.3829 20.237ZM68.6829 18.477C67.8729 18.477 67.2829 18.997 67.1629 19.777H70.1929C70.0929 19.007 69.5029 18.477 68.6829 18.477ZM78.3473 15.877C80.1873 15.877 81.3273 16.817 81.3273 18.367C81.3273 19.907 80.1873 20.857 78.3473 20.857H76.7673V22.877H75.4673V15.877H78.3473ZM78.2873 19.757C79.4273 19.757 80.0173 19.247 80.0173 18.367C80.0173 17.487 79.4273 16.977 78.2873 16.977H76.7673V19.757H78.2873ZM82.6031 22.877V15.457H83.8531V22.877H82.6031ZM87.5337 17.477C89.0737 17.477 89.9637 18.207 89.9637 19.747V22.877H88.7837V22.227C88.4837 22.687 87.9037 22.947 87.1037 22.947C85.8837 22.947 85.1137 22.277 85.1137 21.347C85.1137 20.457 85.7137 19.757 87.3337 19.757H88.7137V19.677C88.7137 18.947 88.2737 18.517 87.3837 18.517C86.7837 18.517 86.1637 18.717 85.7637 19.047L85.2737 18.137C85.8437 17.697 86.6737 17.477 87.5337 17.477ZM87.3637 22.037C87.9737 22.037 88.5037 21.757 88.7137 21.207V20.587H87.4237C86.5737 20.587 86.3437 20.907 86.3437 21.297C86.3437 21.747 86.7237 22.037 87.3637 22.037ZM95.2703 17.537H96.4703L93.9703 23.307C93.4803 24.517 92.8003 24.887 91.9103 24.887C91.3803 24.887 90.8203 24.707 90.4803 24.397L90.9803 23.477C91.2203 23.707 91.5603 23.847 91.9003 23.847C92.3403 23.847 92.6003 23.637 92.8403 23.107L92.9303 22.897L90.6003 17.537H91.9003L93.5803 21.487L95.2703 17.537Z" fill="#FCFCFC"/>
<rect x="0.5" y="0.5" width="106" height="31" rx="5.5" stroke="#A6A6A6"/>
<defs>
<clipPath id="clip0_1104_53224">
<rect width="17.1873" height="19" fill="white" transform="translate(9.90637 6.5)"/>
</clipPath>
</defs>
</svg>
